<svg width="28" height="24" viewBox="0 0 28 24" fill="none" xmlns="http://www.w3.org/2000/svg">
<path d="M23.1549 0C20.8349 0 18.9143 1.72897 18.5418 3.99568C18.1694 1.72847 16.2488 0 13.9288 0C11.6088 0 9.68815 1.72897 9.31568 3.99568C8.9432 1.72847 7.0226 0 4.7026 0C2.11634 0 0.0195312 2.14693 0.0195312 4.79501C0.0195312 7.44309 2.11634 9.59002 4.7026 9.59002C7.0226 9.59002 8.9432 7.86105 9.31568 5.59435C9.68815 7.86155 11.6088 9.59002 13.9288 9.59002C16.2488 9.59002 18.1694 7.86105 18.5418 5.59435C18.9143 7.86155 20.8349 9.59002 23.1549 9.59002C25.7412 9.59002 27.838 7.44309 27.838 4.79501C27.838 2.14693 25.7412 0 23.1549 0V0Z" fill="#00B140"/>
<path d="M23.1549 14.4102C20.8349 14.4102 18.9143 16.1391 18.5418 18.4058C18.1694 16.1386 16.2488 14.4102 13.9288 14.4102C11.6088 14.4102 9.68815 16.1391 9.31568 18.4058C8.9432 16.1386 7.0226 14.4102 4.7026 14.4102C2.11634 14.4102 0.0195312 16.5571 0.0195312 19.2052C0.0195312 21.8532 2.11634 24.0002 4.7026 24.0002C7.0226 24.0002 8.9432 22.2712 9.31568 20.0045C9.68815 22.2717 11.6088 24.0002 13.9288 24.0002C16.2488 24.0002 18.1694 22.2712 18.5418 20.0045C18.9143 22.2717 20.8349 24.0002 23.1549 24.0002C25.7412 24.0002 27.838 21.8532 27.838 19.2052C27.838 16.5571 25.7412 14.4102 23.1549 14.4102V14.4102Z" fill="#00B140"/>
</svg>
